<svg width="16" height="18" viewBox="0 0 16 18" fill="none" xmlns="http://www.w3.org/2000/svg">
<path d="M0.592268 11.3099C0.231997 11.1491 0 10.7914 0 10.3968V7.69409C0 7.29954 0.231999 6.94186 0.592269 6.78099L14.3704 0.628597C15.0319 0.333233 15.7781 0.81729 15.7781 1.5417V3.92969C15.7781 4.33637 15.5318 4.70254 15.1552 4.85588L5.09476 8.95145C5.05688 8.96688 5.02127 8.92501 5.04259 8.8901C5.0649 8.85354 5.12117 8.86936 5.12117 8.91219V9.17874C5.12117 9.22156 5.0649 9.23738 5.04259 9.20083C5.02127 9.16592 5.05688 9.12405 5.09476 9.13947L15.1552 13.235C15.5318 13.3884 15.7781 13.7546 15.7781 14.1612V16.5492C15.7781 17.2736 15.0319 17.7577 14.3704 17.4623L0.592268 11.3099Z" fill="#DEE67F"/>
</svg>
