<svg width="16" height="18" viewBox="0 0 16 18" fill="none" xmlns="http://www.w3.org/2000/svg">
<path d="M15.1859 11.3099C15.5461 11.1491 15.7781 10.7914 15.7781 10.3968V7.69409C15.7781 7.29954 15.5461 6.94186 15.1859 6.78099L1.40773 0.628597C0.746274 0.333233 7.41282e-06 0.81729 7.41282e-06 1.5417V3.92969C7.41282e-06 4.33637 0.246293 4.70254 0.622956 4.85588L10.6834 8.95145C10.7213 8.96688 10.7569 8.92501 10.7356 8.8901V8.8901C10.7132 8.85354 10.657 8.86936 10.657 8.91219V9.17874C10.657 9.22156 10.7132 9.23738 10.7356 9.20083V9.20083C10.7569 9.16592 10.7213 9.12405 10.6834 9.13947L0.622957 13.235C0.246293 13.3884 7.41282e-06 13.7546 7.41282e-06 14.1612V16.5492C7.41282e-06 17.2736 0.746277 17.7577 1.40774 17.4623L15.1859 11.3099Z" fill="#8ABD63"/>
</svg>
