<svg width="24" height="29" viewBox="0 0 24 29" fill="none" xmlns="http://www.w3.org/2000/svg">
<path d="M14.9897 28.9222C13.8722 29.2623 12.9853 28.4253 12.6957 27.6175C12.5296 27.1546 12.3784 26.7257 12.236 26.3232C11.6705 24.7228 11.2535 23.5437 10.6839 22.357C8.88696 18.6101 6.59302 15.6779 2.30485 13.6639C0.667968 12.895 -0.383054 11.0281 0.131607 9.13557L0.968357 6.05976C1.20347 5.19489 1.66039 4.41014 2.29172 3.78693C2.92306 3.16371 3.70581 2.72473 4.55878 2.5155L14.0994 0.176722C15.6841 -0.211901 17.3543 0.0459614 18.7565 0.89571C20.1587 1.74546 21.1828 3.12038 21.6118 4.72936L23.8725 13.208C24.4902 15.5259 22.7855 17.8106 20.438 17.8106H17.0205C17.5047 19.5039 17.8763 21.579 17.8613 23.4667C17.8518 24.6388 17.6932 25.8041 17.2707 26.7729C16.8374 27.7653 16.1092 28.5828 14.9897 28.9222Z" fill="#1F3865"/>
</svg>
