<svg width="32" height="30" viewBox="0 0 32 30" fill="none" xmlns="http://www.w3.org/2000/svg">
<path d="M31.0004 4.64001C29.6604 1.89001 25.8004 -0.359991 21.3104 0.950009C19.1648 1.56975 17.2929 2.89879 16.0004 4.72001C14.7078 2.89879 12.8359 1.56975 10.6904 0.950009C6.19036 -0.339991 2.34036 1.89001 1.00036 4.64001C-0.879645 8.49001 -0.0996444 12.82 3.32036 17.51C6.00036 21.18 9.83035 24.9 15.3904 29.22C15.5661 29.3571 15.7825 29.4315 16.0054 29.4315C16.2282 29.4315 16.4446 29.3571 16.6204 29.22C22.1704 24.91 26.0104 21.22 28.6904 17.51C32.1004 12.82 32.8804 8.49001 31.0004 4.64001Z" fill="#FC6A57"/>
</svg>
