<svg width="32" height="32" viewBox="0 0 32 32" fill="none" xmlns="http://www.w3.org/2000/svg">
<path d="M9.5 0H9.6375C11.6312 0 13.4812 1.05687 14.4937 2.77813L16 5.34125L17.5063 2.77813C18.5188 1.05687 20.3687 0 22.3625 0H22.5C25.5375 0 28 2.4625 28 5.5C28 6.4 27.7812 7.19375 27.4 8H30C31.1063 8 32 8.89375 32 10V14C32 15.1062 31.1063 16 30 16H2C0.895625 16 0 15.1062 0 14V10C0 8.89375 0.895625 8 2 8H4.6C4.21625 7.19375 4 6.4 4 5.5C4 2.4625 6.4625 0 9.5 0ZM11.9062 4.29875C11.4312 3.49437 10.5687 3 9.6375 3H9.5C8.11875 3 7 4.11938 7 5.5C7 6.88125 8.11875 8 9.5 8H14.0813L11.9062 4.29875ZM22.5 3H22.3625C21.4312 3 20.5688 3.49437 20.0938 4.29875L17.9188 8H22.5C23.8813 8 25 6.88125 25 5.5C25 4.11938 23.8813 3 22.5 3ZM2 18H14V32H5C3.34312 32 2 30.6562 2 29V18ZM18 32V18H30V29C30 30.6562 28.6562 32 27 32H18Z" fill="white"/>
</svg>
