<svg width="24" height="29" viewBox="0 0 24 29" fill="none" xmlns="http://www.w3.org/2000/svg">
<path d="M14.9897 0.0777987C13.8722 -0.262261 12.9853 0.574703 12.6957 1.38252C12.5296 1.84542 12.3784 2.27431 12.236 2.67683C11.6705 4.27719 11.2535 5.4563 10.6839 6.64304C8.88696 10.3899 6.59302 13.3221 2.30485 15.3361C0.667968 16.105 -0.383054 17.9719 0.131607 19.8644L0.968357 22.9402C1.20347 23.8051 1.66039 24.5899 2.29172 25.2131C2.92306 25.8363 3.70581 26.2753 4.55878 26.4845L14.0994 28.8233C15.6841 29.2119 17.3543 28.954 18.7565 28.1043C20.1587 27.2545 21.1828 25.8796 21.6118 24.2706L23.8725 15.792C24.4902 13.4741 22.7855 11.1894 20.438 11.1894H17.0205C17.5047 9.49607 17.8763 7.42101 17.8613 5.53333C17.8518 4.36117 17.6932 3.19594 17.2707 2.22712C16.8374 1.2347 16.1092 0.417165 14.9897 0.0777987Z" fill="#FC6A57"/>
</svg>
